<svg xmlns="http://www.w3.org/2000/svg" width="880" height="300" viewBox="0 0 880 300" role="img" aria-labelledby="title desc">
  <title id="title">Contribution Graph</title>
  <desc id="desc">Daily GitHub contributions from 2026-09-04 to 2026-10-04.</desc>
  <rect width="880" height="300" rx="6" fill="#fffefe"/>
  <g font-family="'Segoe UI', Ubuntu, sans-serif">
    <text x="62" y="36" fill="#151515" font-size="20" font-weight="600">Contribution Graph</text>
    <line x1="62" y1="252.0" x2="856" y2="252.0" stroke="#e4e2e2"/><text class="y-label" x="50" y="256.0" text-anchor="end" fill="#464646" font-size="12">0</text><line x1="62" y1="205.5" x2="856" y2="205.5" stroke="#e4e2e2"/><text class="y-label" x="50" y="209.5" text-anchor="end" fill="#464646" font-size="12">8</text><line x1="62" y1="159.0" x2="856" y2="159.0" stroke="#e4e2e2"/><text class="y-label" x="50" y="163.0" text-anchor="end" fill="#464646" font-size="12">16</text><line x1="62" y1="112.5" x2="856" y2="112.5" stroke="#e4e2e2"/><text class="y-label" x="50" y="116.5" text-anchor="end" fill="#464646" font-size="12">24</text><line x1="62" y1="66.0" x2="856" y2="66.0" stroke="#e4e2e2"/><text class="y-label" x="50" y="70.0" text-anchor="end" fill="#464646" font-size="12">32</text>
    <polygon points="62,252 62.0,228.8 88.5,252.0 114.9,252.0 141.4,106.7 167.9,182.2 194.3,141.6 220.8,182.2 247.3,211.3 273.7,252.0 300.2,217.1 326.7,89.2 353.1,95.1 379.6,205.5 406.1,188.1 432.5,170.6 459.0,228.8 485.5,234.6 511.9,222.9 538.4,211.3 564.9,124.1 591.3,188.1 617.8,159.0 644.3,147.4 670.7,252.0 697.2,95.1 723.7,164.8 750.1,83.4 776.6,118.3 803.1,252.0 829.5,252.0 856.0,252.0 856.0,252" fill="#0366d6" fill-opacity="0.18"/>
    <polyline points="62.0,228.8 88.5,252.0 114.9,252.0 141.4,106.7 167.9,182.2 194.3,141.6 220.8,182.2 247.3,211.3 273.7,252.0 300.2,217.1 326.7,89.2 353.1,95.1 379.6,205.5 406.1,188.1 432.5,170.6 459.0,228.8 485.5,234.6 511.9,222.9 538.4,211.3 564.9,124.1 591.3,188.1 617.8,159.0 644.3,147.4 670.7,252.0 697.2,95.1 723.7,164.8 750.1,83.4 776.6,118.3 803.1,252.0 829.5,252.0 856.0,252.0" fill="none" stroke="#0366d6" stroke-width="2.5" stroke-linejoin="round" stroke-linecap="round"/>
    <circle class="day-point" data-date="2026-09-04" data-count="4" cx="62.0" cy="228.8" r="3.2" fill="#fb8c00"><title>2026-09-04: 4 contributions</title></circle><circle class="day-point" data-date="2026-09-05" data-count="0" cx="88.5" cy="252.0" r="3.2" fill="#fb8c00"><title>2026-09-05: 0 contributions</title></circle><circle class="day-point" data-date="2026-09-06" data-count="0" cx="114.9" cy="252.0" r="3.2" fill="#fb8c00"><title>2026-09-06: 0 contributions</title></circle><circle class="day-point" data-date="2026-09-07" data-count="25" cx="141.4" cy="106.7" r="3.2" fill="#fb8c00"><title>2026-09-07: 25 contributions</title></circle><circle class="day-point" data-date="2026-09-08" data-count="12" cx="167.9" cy="182.2" r="3.2" fill="#fb8c00"><title>2026-09-08: 12 contributions</title></circle><circle class="day-point" data-date="2026-09-09" data-count="19" cx="194.3" cy="141.6" r="3.2" fill="#fb8c00"><title>2026-09-09: 19 contributions</title></circle><circle class="day-point" data-date="2026-09-10" data-count="12" cx="220.8" cy="182.2" r="3.2" fill="#fb8c00"><title>2026-09-10: 12 contributions</title></circle><circle class="day-point" data-date="2026-09-11" data-count="7" cx="247.3" cy="211.3" r="3.2" fill="#fb8c00"><title>2026-09-11: 7 contributions</title></circle><circle class="day-point" data-date="2026-09-12" data-count="0" cx="273.7" cy="252.0" r="3.2" fill="#fb8c00"><title>2026-09-12: 0 contributions</title></circle><circle class="day-point" data-date="2026-09-13" data-count="6" cx="300.2" cy="217.1" r="3.2" fill="#fb8c00"><title>2026-09-13: 6 contributions</title></circle><circle class="day-point" data-date="2026-09-14" data-count="28" cx="326.7" cy="89.2" r="3.2" fill="#fb8c00"><title>2026-09-14: 28 contributions</title></circle><circle class="day-point" data-date="2026-09-15" data-count="27" cx="353.1" cy="95.1" r="3.2" fill="#fb8c00"><title>2026-09-15: 27 contributions</title></circle><circle class="day-point" data-date="2026-09-16" data-count="8" cx="379.6" cy="205.5" r="3.2" fill="#fb8c00"><title>2026-09-16: 8 contributions</title></circle><circle class="day-point" data-date="2026-09-17" data-count="11" cx="406.1" cy="188.1" r="3.2" fill="#fb8c00"><title>2026-09-17: 11 contributions</title></circle><circle class="day-point" data-date="2026-09-18" data-count="14" cx="432.5" cy="170.6" r="3.2" fill="#fb8c00"><title>2026-09-18: 14 contributions</title></circle><circle class="day-point" data-date="2026-09-19" data-count="4" cx="459.0" cy="228.8" r="3.2" fill="#fb8c00"><title>2026-09-19: 4 contributions</title></circle><circle class="day-point" data-date="2026-09-20" data-count="3" cx="485.5" cy="234.6" r="3.2" fill="#fb8c00"><title>2026-09-20: 3 contributions</title></circle><circle class="day-point" data-date="2026-09-21" data-count="5" cx="511.9" cy="222.9" r="3.2" fill="#fb8c00"><title>2026-09-21: 5 contributions</title></circle><circle class="day-point" data-date="2026-09-22" data-count="7" cx="538.4" cy="211.3" r="3.2" fill="#fb8c00"><title>2026-09-22: 7 contributions</title></circle><circle class="day-point" data-date="2026-09-23" data-count="22" cx="564.9" cy="124.1" r="3.2" fill="#fb8c00"><title>2026-09-23: 22 contributions</title></circle><circle class="day-point" data-date="2026-09-24" data-count="11" cx="591.3" cy="188.1" r="3.2" fill="#fb8c00"><title>2026-09-24: 11 contributions</title></circle><circle class="day-point" data-date="2026-09-25" data-count="16" cx="617.8" cy="159.0" r="3.2" fill="#fb8c00"><title>2026-09-25: 16 contributions</title></circle><circle class="day-point" data-date="2026-09-26" data-count="18" cx="644.3" cy="147.4" r="3.2" fill="#fb8c00"><title>2026-09-26: 18 contributions</title></circle><circle class="day-point" data-date="2026-09-27" data-count="0" cx="670.7" cy="252.0" r="3.2" fill="#fb8c00"><title>2026-09-27: 0 contributions</title></circle><circle class="day-point" data-date="2026-09-28" data-count="27" cx="697.2" cy="95.1" r="3.2" fill="#fb8c00"><title>2026-09-28: 27 contributions</title></circle><circle class="day-point" data-date="2026-09-29" data-count="15" cx="723.7" cy="164.8" r="3.2" fill="#fb8c00"><title>2026-09-29: 15 contributions</title></circle><circle class="day-point" data-date="2026-09-30" data-count="29" cx="750.1" cy="83.4" r="3.2" fill="#fb8c00"><title>2026-09-30: 29 contributions</title></circle><circle class="day-point" data-date="2026-10-01" data-count="23" cx="776.6" cy="118.3" r="3.2" fill="#fb8c00"><title>2026-10-01: 23 contributions</title></circle><circle class="day-point" data-date="2026-10-02" data-count="0" cx="803.1" cy="252.0" r="3.2" fill="#fb8c00"><title>2026-10-02: 0 contributions</title></circle><circle class="day-point" data-date="2026-10-03" data-count="0" cx="829.5" cy="252.0" r="3.2" fill="#fb8c00"><title>2026-10-03: 0 contributions</title></circle><circle class="day-point" data-date="2026-10-04" data-count="0" cx="856.0" cy="252.0" r="3.2" fill="#fb8c00"><title>2026-10-04: 0 contributions</title></circle>
    <text class="x-label" x="62.0" y="276" text-anchor="start" fill="#464646" font-size="12">2026-09-04</text><text class="x-label" x="220.8" y="276" text-anchor="middle" fill="#464646" font-size="12">2026-09-10</text><text class="x-label" x="379.6" y="276" text-anchor="middle" fill="#464646" font-size="12">2026-09-16</text><text class="x-label" x="538.4" y="276" text-anchor="middle" fill="#464646" font-size="12">2026-09-22</text><text class="x-label" x="697.2" y="276" text-anchor="middle" fill="#464646" font-size="12">2026-09-28</text><text class="x-label" x="856.0" y="276" text-anchor="end" fill="#464646" font-size="12">2026-10-04</text>
  </g>
</svg>
